HIERARCHY
ROOT root
{
	OFFSET 0.000000 0.000000 0.000000
	CHANNELS 6 Xposition Yposition Zposition Zrotation Yrotation Xrotation
	JOINT lhip
	{
		OFFSET 0.058581 -0.082280 -0.017664
		CHANNELS 3 Zrotation Yrotation Xrotation
		JOINT lknee
		{
			OFFSET 0.043451 -0.386469 0.008037
			CHANNELS 3 Zrotation Yrotation Xrotation
			JOINT lankle
			{
				OFFSET -0.014790 -0.426874 -0.037428
				CHANNELS 3 Zrotation Yrotation Xrotation
				JOINT ltoe
				{
					OFFSET 0.041054 -0.060286 0.122042
					CHANNELS 3 Zrotation Yrotation Xrotation
					End Site
					{
						OFFSET 0.000000 0.000000 0.000000
					}
				}
			}
		}
	}
	JOINT rhip
	{
		OFFSET -0.060310 -0.090513 -0.013543
		CHANNELS 3 Zrotation Yrotation Xrotation
		JOINT rknee
		{
			OFFSET -0.043257 -0.383688 -0.004843
			CHANNELS 3 Zrotation Yrotation Xrotation
			JOINT rankle
			{
				OFFSET 0.019056 -0.420046 -0.034562
				CHANNELS 3 Zrotation Yrotation Xrotation
				JOINT rtoe
				{
					OFFSET -0.034840 -0.062106 0.130323
					CHANNELS 3 Zrotation Yrotation Xrotation
					End Site
					{
						OFFSET 0.000000 0.000000 0.000000
					}
				}
			}
		}
	}
	JOINT lowerback
	{
		OFFSET 0.004439 0.124404 -0.038385
		CHANNELS 3 Zrotation Yrotation Xrotation
		JOINT upperback
		{
			OFFSET 0.004488 0.137956 0.026820
			CHANNELS 3 Zrotation Yrotation Xrotation
			JOINT chest
			{
				OFFSET -0.002265 0.056032 0.002855
				CHANNELS 3 Zrotation Yrotation Xrotation
				JOINT lowerneck
				{
					OFFSET -0.013390 0.211636 -0.033468
					CHANNELS 3 Zrotation Yrotation Xrotation
					JOINT upperneck
					{
						OFFSET 0.010113 0.088937 0.050410
						CHANNELS 3 Zrotation Yrotation Xrotation
						End Site
						{
							OFFSET 0.000000 0.000000 0.000000
						}
					}
				}
				JOINT lclavicle
				{
					OFFSET 0.071702 0.114000 -0.018898
					CHANNELS 3 Zrotation Yrotation Xrotation
					JOINT lshoulder
					{
						OFFSET 0.122921 0.045205 -0.019046
						CHANNELS 3 Zrotation Yrotation Xrotation
						JOINT lelbow
						{
							OFFSET 0.255332 -0.015649 -0.022946
							CHANNELS 3 Zrotation Yrotation Xrotation
							JOINT lwrist
							{
								OFFSET 0.265709 0.012698 -0.007375
								CHANNELS 3 Zrotation Yrotation Xrotation
								End Site
								{
									OFFSET 0.000000 0.000000 0.000000
								}
							}
						}
					}
				}
				JOINT rclavicle
				{
					OFFSET -0.082954 0.112472 -0.023707
					CHANNELS 3 Zrotation Yrotation Xrotation
					JOINT rshoulder
					{
						OFFSET -0.113228 0.046853 -0.008472
						CHANNELS 3 Zrotation Yrotation Xrotation
						JOINT relbow
						{
							OFFSET -0.260127 -0.014369 -0.031269
							CHANNELS 3 Zrotation Yrotation Xrotation
							JOINT rwrist
							{
								OFFSET -0.269108 0.006794 -0.006027
								CHANNELS 3 Zrotation Yrotation Xrotation
								End Site
								{
									OFFSET 0.000000 0.000000 0.000000
								}
							}
						}
					}
				}
			}
		}
	}
}
MOTION
Frames: 7
Frame Time: 0.033333
1.108871 1.006842 0.961977 -81.992555 -12.000600 75.212673 21.406613 0.802110 -3.933033 -3.679620 -12.889062 9.956344 -12.363980 4.308750 9.201118 0.000000 -0.000000 0.000000 -20.218070 -1.630183 4.136462 0.323393 7.295737 40.337245 1.964478 -7.846658 -32.252388 0.000000 -0.000000 0.000000 4.351238 -0.146059 12.299237 0.835462 -1.194275 13.558333 -2.816719 -1.072756 4.201372 1.427885 8.960839 11.293057 -1.829628 4.911764 17.598938 -27.188936 8.981867 -0.863479 -53.424026 1.982861 2.642000 6.625600 -28.980657 7.514489 -4.879873 -2.386462 -10.794102 25.050953 -1.476349 -1.634952 41.906241 6.710700 3.519645 -11.811444 34.450304 -9.654524 7.923427 0.008106 1.902630 
1.103372 0.985613 0.957466 -82.100418 -11.891796 75.537356 21.130612 1.070805 -4.536090 -4.084735 -13.800653 9.465875 -12.782361 3.491551 10.141805 0.000000 -0.000000 0.000000 -21.752972 -1.866601 4.310115 0.084469 7.672852 40.165254 2.540915 -7.223253 -32.560920 0.000000 -0.000000 0.000000 4.915136 -0.243060 12.181836 0.825485 -1.197872 13.855761 -2.897444 -0.873335 4.245048 1.329085 9.223521 11.204886 -2.041037 4.960120 17.378456 -27.359406 9.120941 -1.093219 -52.940558 2.547752 2.469054 6.422412 -29.355108 7.322685 -4.867531 -2.340435 -11.129300 25.256312 -1.064426 -1.514319 40.915476 7.348967 3.376793 -11.665345 35.851630 -10.044869 6.622767 0.453221 2.141111 
1.098594 0.963214 0.952467 -82.591492 -11.616470 75.810647 20.899806 1.273940 -4.904980 -4.372550 -14.321725 9.025688 -14.131105 2.515708 10.787196 0.000000 -0.000000 0.000000 -23.142416 -1.806677 4.444259 -0.142497 7.995087 39.774778 3.035080 -6.610119 -32.675535 0.000000 -0.000000 0.000000 5.558706 -0.151682 12.882738 0.767268 -1.005874 13.764684 -2.963624 -0.675965 4.031828 1.305907 8.728902 11.086835 -2.264264 4.587666 17.264931 -27.408534 9.418622 -1.194992 -52.603082 2.926348 2.262774 6.232090 -29.757133 7.267325 -5.305610 -2.606650 -11.308967 25.228481 -0.533276 -1.526051 40.354683 8.061644 3.214584 -11.657883 36.090263 -10.558917 6.164381 1.099770 2.509575 
1.092783 0.939363 0.946455 -82.870826 -10.893545 76.349228 20.904014 1.696255 -5.801437 -4.745505 -15.098106 9.020429 -15.290926 1.430099 11.678348 0.000000 -0.000000 0.000000 -24.340415 -2.289335 4.575613 -0.388332 8.274404 39.141031 3.276470 -5.816776 -32.635753 0.000000 -0.000000 0.000000 6.201636 -0.052798 13.108350 0.851810 -0.900266 13.658614 -2.957202 -0.551030 3.975274 1.265716 8.443870 11.454001 -2.123383 4.568596 16.957883 -27.566926 9.493066 -1.142971 -52.226929 3.410073 1.963455 6.102727 -30.258610 6.861701 -5.256739 -2.405204 -11.595705 25.205044 -0.205020 -1.378229 39.900053 8.526174 2.784946 -11.643043 36.710430 -10.893588 6.521789 0.269852 2.550028 
1.087169 0.914151 0.939078 -83.077569 -10.188777 76.925657 20.458808 1.607278 -6.635263 -4.701018 -15.540817 9.157438 -15.121536 1.184265 11.453104 0.000000 -0.000000 0.000000 -25.549876 -2.528316 4.742854 -0.614898 8.669360 38.410101 3.861983 -5.362753 -32.435274 0.000000 -0.000000 0.000000 6.422051 0.136532 13.514079 0.884149 -0.976795 13.555380 -2.934647 -0.463960 3.991071 1.576949 7.660462 11.522561 -2.020799 3.905914 17.167368 -27.406076 9.638033 -1.037869 -52.124298 3.483165 1.949239 5.859835 -30.637884 6.936435 -5.124109 -2.297907 -12.137945 25.159644 0.289282 -1.103128 39.779505 9.268553 2.767440 -11.975944 36.967661 -11.554306 6.601008 0.455886 2.407202 
1.081387 0.887602 0.930533 -83.083549 -8.902906 77.773137 20.046984 1.543239 -8.340014 -5.377953 -16.755198 11.443296 -15.959437 0.048056 11.344328 0.000000 -0.000000 0.000000 -26.011940 -2.659999 4.921839 -1.111299 8.720319 37.609178 4.521986 -5.058066 -32.244356 0.000000 -0.000000 0.000000 6.824074 0.156040 14.100855 1.003090 -1.194044 13.112034 -2.904107 -0.463959 3.823214 1.808194 7.417462 11.285615 -2.009619 3.735533 17.044993 -27.235185 9.563464 -0.956950 -51.904376 3.666501 1.592015 5.592160 -30.718754 7.218622 -6.078060 -2.410934 -12.402537 24.941607 0.577678 -1.175931 40.257239 9.466159 2.750196 -12.802234 37.500150 -12.085899 6.809394 0.525771 2.473065 
1.074779 0.859165 0.920740 -83.623600 -7.331048 78.833763 19.409572 1.521532 -9.998449 -5.945137 -16.240522 15.855757 -16.056965 0.215168 5.710031 0.000000 -0.000000 0.000000 -26.399216 -2.802245 4.815498 -1.484148 9.043370 36.548274 5.894931 -4.313243 -32.090014 0.000000 -0.000000 0.000000 7.115231 0.355575 15.152462 1.093216 -1.320931 11.592073 -2.848115 -0.406842 4.137049 2.409477 6.877834 10.846237 -1.846733 3.115988 17.500906 -26.634075 9.635852 -0.776244 -51.891413 3.549222 1.229605 4.915472 -30.466238 8.004926 -6.081729 -2.662682 -12.401778 24.766463 0.100047 -1.799522 40.985970 9.774816 2.849110 -12.994172 38.303612 -11.789341 6.438138 0.558451 1.640334 
